<svg xmlns="http://www.w3.org/2000/svg" viewBox="0 0 500 500"><!--Relaxation--><g id="freepik--background-simple--inject-1--inject-36"><path d="M311.93,98.06c-3.43,9.62-2.06,20.92-.61,32.88.28,2.27.55,4.57.8,6.86-5-3.4-22.85-16-29.46-24.11-3.82-4.72-8-14.23-11.54-23.52,14.67,5.92,29.43,7.23,41.17,6.89ZM118.86,383.66c-.66,1.39-1.68,4.11-2.78,7.22,8.77,2.62,18.91,5.07,30.47,7.65A68.73,68.73,0,0,0,151,391.9c6.89-11.8,15.65-12,19.76-11.31.07-5.64-.38-12.84-2.64-24.13a62.05,62.05,0,0,0-3.76-12.08c-15,6.73-29,22.61-29.23,22.81l-1.07-.93c-3,5.93-7.54,10-11,13C121.1,381,119.4,382.54,118.86,383.66ZM334.27,108.54c-14.6.44-20.34,6.08-21.51,7.43.22,4.68.81,9.59,1.42,14.62.29,2.37.57,4.77.83,7.16,4.32-1,12.78-2.41,19.64-.11,6.37,2.13,18.88.81,25.13,0-3.67-3.12-6.6-6.59-7.58-9.55C350.3,122.3,339,112.32,334.27,108.54ZM230.93,387c3.11-1.57,5.8-2.9,7.91-3.71l2.24-.87c2.85-1.12,5.95-2.32,9.77-3.59-.53-4.23-2.12-18.36-1.42-30.64.68-12-22.31-33.32-28.44-38.8-.05.3-.1.61-.16.91-2.35,11.9-12.48,22.22-25.42,27.44,2,1.77,7.31,7.26,12.7,20.56,3.39,8.36,12,17.36,19.58,25.29Zm-94.05-31a28.06,28.06,0,0,1-1.28,6.38c4.88-5.06,15.73-15.41,27.53-20.66a75,75,0,0,0-17-22.82,24.49,24.49,0,0,1-9.69,7.92A152.44,152.44,0,0,1,136.88,356Zm39.74-17.5c19.67.13,38.23-12.76,41.39-28.76,2.83-14.4-2.31-29-3.68-32.49-4.81,1.16-9.64,2.25-14.25,3.29-6.89,1.55-13.39,3-18,4.36-16.4,4.75-22.91,14.53-31.14,26.92-1,1.53-2.08,3.11-3.16,4.7a76.09,76.09,0,0,1,18.06,24.1A30.8,30.8,0,0,1,176.62,338.53Zm192.46-75.48c7.75-5.94,13.77-15.82,18.31-24.5a73.56,73.56,0,0,0-16.29-7.94c-9.69-3.07-22.5-5.57-32.79-7.57-13-2.53-18.05-3.62-19.45-5a11.66,11.66,0,0,1-1.45-1.8,19.2,19.2,0,0,0,3.9,12.18c2,2.59,4.16,5.16,6.28,7.64,7.77,9.07,15.1,17.64,10.85,26.89a37.37,37.37,0,0,1-9.84,12.6c5.45.85,16.17,2.68,27.71,5.47C356,278.32,357.15,272.21,369.08,263.05ZM115.39,167.72c1,7.37-8.49,24.71-14.41,29.41,2.85,2.59,8.93,8.61,12.77,15.92,3.2,6.11,6.8,12.51,10.84,16.37,2.1-6.19,8-21.64,15.22-24.59,2.09-.85,3.67-3.75,4.31-8,1.22-8-1.17-19.53-6.65-24.05-6.81-5.6-20.72-12-26.64-14.64C113.29,162,115.07,165.47,115.39,167.72ZM225.25,72.93q1.42.39,2.85.81a122.5,122.5,0,0,0-9.33,18.74c4.87-1.4,15.06-2.63,24.23,7.19,5.92,6.34,8.8,14.49,11.33,21.68s4.73,13.41,9.15,14.74a169.05,169.05,0,0,0,18.77,4.36c.39-10-1.69-23-2.06-25.26-4.33-5.52-9-16.45-12.7-26.53C254.63,83.21,240.41,77.1,225.25,72.93ZM99.09,335.62c2,1.44,13.3,10.29,16.57,23.67,2.56,10.48,8.53,12.51,10.69,12.91A26.75,26.75,0,0,0,134,355.8a151,151,0,0,0-.38-27.93,24.9,24.9,0,0,1-3.55.76c-7.65,1.08-16.47-1-26.28-3.84C103.39,326.72,102.23,330.13,99.09,335.62ZM144,316.88c-3.8-4.58-21.26-25.75-28.56-36.46-3,2.25-10.56,8.56-11.84,14.64l-1.91-.4c4.37,11,3.08,23.28,2.49,27.25C121.58,327,134.73,329.41,144,316.88Zm15.32-178.56c-13.65-1.68-19.87-4.07-22.47-5.44-2.85,6.76-9.48,23.8-11.52,29a87.16,87.16,0,0,1,13.94,8.68c3.63,3,6,8.29,7.18,13.92,5-2.2,17.49-8.94,21-22.54,3.38-13-.19-20.48-2.18-23.42A36.66,36.66,0,0,1,159.34,138.32Zm27.15-58.48c-5.79,7.7-7.84,23.46-7.86,23.62l-.48-.06c7,6.89,12.53,11.7,14.8,13.64a64.09,64.09,0,0,1,8.51-7.62c5.8-4.67,12.37-10,13.67-15,1.37-5.25,6-14.66,10.11-21.54a130.32,130.32,0,0,0-32.41-5A48.34,48.34,0,0,1,186.49,79.84ZM198.25,150c3.47,11.25.87,19.2-1.64,26.88-1.48,4.53-3,9.2-3.32,14.6a24.57,24.57,0,0,0,1.35,9.34l.07,0,.27-.14c.91-.34,22.53-8.28,35.44-5.68A73.56,73.56,0,0,0,248,196.64c-2.16-8.7,2.72-24.14,7.65-32.27,2.6-4.29,8-6.38,13.19-8.4,6.12-2.38,11.91-4.62,12.9-10,.15-.82.26-1.7.35-2.61a175.36,175.36,0,0,1-19.4-4.5c-5.82-1.75-8.23-8.6-11-16.53-2.44-6.93-5.21-14.77-10.72-20.68-9.8-10.5-20.74-6.78-23.2-5.75-1.87,5.66-8.53,11-14.44,15.78-3.78,3-7.36,5.91-8.87,8.24a51.76,51.76,0,0,1-7.5,9.15C188.94,130.73,194,136,198.25,150ZM335.83,261.72c3.48-7.58-3.27-15.47-10.42-23.82-2.16-2.51-4.38-5.11-6.39-7.77-4.52-6-5.06-12.35-4.09-19-.23-.63-.36-1.06-.37-1.12l.57-.16c.59-3.43,1.52-6.93,2.47-10.5s1.94-7.26,2.63-11.06.07-6.78-1.81-9.17c-4.08-5.16-12.84-5.67-12.93-5.68v-.18a99.39,99.39,0,0,1-12.4,7.21,165.26,165.26,0,0,0-20.17,11.91c-7.6,5.36-11.6,13.15-13.73,21.55l.15.29-.26.13c-2.22,9-2.31,18.76-2.39,26.93-.06,6.67-.12,12.43-1.23,16.45a11.14,11.14,0,0,1-3.54,5.14c7.72,4.37,16.3,8.81,17.89,9,1-.1,3.15.46,10.66,2.54,9.07,2.52,22.78,6.32,29.06,6.33C319.05,280.71,331.09,272,335.83,261.72Zm-48.47,135c-2.52-17.82-13.76-20.4-14.23-20.5l-.36-.07a165.4,165.4,0,0,0-30.64,9l-2.26.87c-1.81.7-4.17,1.85-6.89,3.22,5,5.4,9.12,10.45,10.55,14.86,2.1,6.44,2.18,17.91,1.86,27.48a97.41,97.41,0,0,0,12-1,84.21,84.21,0,0,0,32.08-11.79,24.5,24.5,0,0,1-1-7.76A109,109,0,0,0,287.36,396.69ZM292,417.21a159.79,159.79,0,0,0,21.11-16.67,74.78,74.78,0,0,0,9.65-11.22l.7-.93c-4.7-5.92-8.48-12.67-9.73-20a39.55,39.55,0,0,1-.09-12.88c-4.28,6.61-13,15.68-29.47,18.46-2.22.37-4.31.75-6.3,1.12,4.26,2.46,10.47,8.19,12.31,21.18A112.06,112.06,0,0,1,291.4,411,24.63,24.63,0,0,0,292,417.21Zm-205.4-140a42.44,42.44,0,0,1,10.65,9.59,30.87,30.87,0,0,1,3.84,6.49c2.14-6.78,9.85-13.09,12.77-15.28-6.85-11.05-6.36-19.65,1.63-30.27,6.32-8.4,7.84-13.72,8.17-15.24-4.78-4-8.77-11-12.49-18.09-4-7.59-10.73-13.89-12.89-15.79C95.66,201,89,216.2,83.86,230.08l0,0c4.74,6.25,9.65,12.71,8.46,20.86A238.81,238.81,0,0,1,86.63,277.19Zm274.05,36.06a62.76,62.76,0,0,1,7.13,3.82h0a100.91,100.91,0,0,1,14.48-8.14h0a105.27,105.27,0,0,1-16.36,3.59Zm43.72-31.47c4.88-2.07,6.35-2.7,6.36-10.53,0-4.56-.34-10.61-.72-15.83l-.44.45a155.15,155.15,0,0,0-19.78-15.76c-4.66,8.89-10.87,19-19,25.23-12.57,9.65-11.77,15-11.59,15.74a6.18,6.18,0,0,1,.46.75c5.5,1.4,11.08,3,16.27,4.83s9.5,3.45,13.08,4.92l-.13-.16a59.68,59.68,0,0,1,12.93-8.52C402.77,282.48,403.62,282.12,404.4,281.78ZM147,187.46a35.59,35.59,0,0,1,0,9.84c-.61,4-2,7.06-4,8.85a38.83,38.83,0,0,0,22.74,5.11c10.82-1,21.54-6.28,26.34-8.94a27.36,27.36,0,0,1-1.66-11c.33-5.77,1.92-10.63,3.46-15.33,2.48-7.59,4.82-14.76,1.63-25.14-4.61-14.93-9.89-19.21-10.8-19.86a32.08,32.08,0,0,1-16.14,7.29h0c2.28,4.06,5,12,1.77,24.41C166.22,178.32,151.9,185.43,147,187.46ZM375,289.37c-4.64-1.62-9.58-3.08-14.5-4.36.13,2.68-.86,6.66-5.2,12s-8.39,10.73-11.81,15.4c3.25-.28,9.66-1,22-2.72,18.31-2.59,29-8.64,32.49-10.92A192,192,0,0,0,375,289.37Zm16.66-144.61c-1.52.36-2.75.59-3.87.75-1.28.18-2.41.27-3.67.38-1.48.12-3.17.26-5.48.58-3.81.54-10.18-2.38-15.76-6.42-.6.09-1.41.22-2.39.35-6.35.9-19.66,2.35-26.77,0-6.33-2.12-14.55-.64-18.45.29a87.42,87.42,0,0,1,.25,15.06c-.6,6.89-3.18,11.48-7.17,15.18,3.34.59,8.94,2.19,12.3,6.42,2.42,3.06,3.23,6.92,2.39,11.48-.71,3.91-1.71,7.66-2.68,11.28a108.43,108.43,0,0,0-2.49,10.74,15.89,15.89,0,0,0,3,5.17c1.15,1,10.08,2.7,18,4.24,10.36,2,23.26,4.52,33.11,7.65A76,76,0,0,1,388.73,236c.94-1.86,1.82-3.64,2.62-5.28,2.15-4.38,3.7-7.55,5-9,2.93-3.24,8.5-16.49,10.4-21.33l0,0c-.15-4.51-.27-8.95-.34-12.95h0c-8.79-12.05-15.69-24.14-14.85-38.47C391.66,147.56,391.69,146.15,391.68,144.76Zm-223.44,69.1c-.74.11-1.49.2-2.23.26a41,41,0,0,1-25.79-6.29c-5.6,3.14-11.07,16.91-13.23,23.51a9.62,9.62,0,0,0,3.8,1.56l2.33.34c6.18.89,11.06,1.59,23,7.11,12.27,5.69,24,34.91,26.45,41.45,4.58-1.26,10.57-2.61,16.89-4,10.56-2.38,23-5.19,33.29-8.57-3-6.55-14.26-31.08-21.7-40.43-1.66-2.09-3.49-4.21-5.27-6.26C201,217,196.15,211.36,193.2,205,188.42,207.63,178.65,212.39,168.24,213.86Zm61.62-16.07c-11.62-2.34-31.88,4.84-33.75,5.51l-.4.25c2.79,6.14,7.56,11.66,12.23,17.07,1.79,2.07,3.64,4.22,5.34,6.35,7.85,9.87,19.36,35,22.19,41.29,9.14-3.24,16-7,17.23-11.32,1-3.65,1.06-9.24,1.12-15.71.08-8.17.17-17.84,2.31-27-1.39-2.7-4.66-9.16-7.14-14.78C246.52,199.65,239.94,199.83,229.86,197.79ZM271.27,190a167,167,0,0,1,20.5-12.11c12.38-6.48,19.85-10.38,20.9-22.44a82.56,82.56,0,0,0-.2-14l-.09,0-.57-.39c-.85-.56-18.56-12.48-28.12-22,.95,6.79,2.32,19.34.84,27.41-1.28,7-8.1,9.62-14.69,12.18-5,1.93-9.67,3.76-11.77,7.21-5.52,9.1-9.72,24.85-6.85,31.51,1.86,4.32,4.31,9.32,6,12.75C259.7,202.35,263.92,195.2,271.27,190ZM199.81,396.92c6.43,2.38,18.87-3.68,28.45-8.53l-2.65-2.78c-7.77-8.12-16.57-17.32-20.17-26.2-6.35-15.66-12.44-19.89-12.5-19.93l.67-1a49.36,49.36,0,0,1-17,3,27.45,27.45,0,0,0-9.59,1.88,65.41,65.41,0,0,1,3.89,12.6c2.44,12.19,2.82,19.72,2.68,25.65C175.72,383,190.83,393.61,199.81,396.92ZM391.68,144.76c0-1,0-2-.07-2.94C391.66,142.79,391.68,143.77,391.68,144.76ZM274.06,372.92a3.25,3.25,0,0,0,.52-.6c1.11-1.63,2.51-6.19-.5-18.47-2.69-11-7-15.87-10.81-20.15-3.25-3.66-6.32-7.12-7.22-13.5-.43-3.07-.84-6.34-1.23-9.51-1.27-10.18-2.58-20.71-5-26.26A129,129,0,0,0,241.47,269c-6.84,2.92-15.46,5.4-24.32,7.61,1.51,3.89,5.67,16.13,4.32,29.42,2.1,1.81,31.69,27.48,30.83,42.38-.66,11.59.76,24.89,1.34,29.59,3.43-1.07,7.44-2.17,12.28-3.3l-4-.86,9.72-.39Zm5.65-95.78c-4.34-1.21-8.83-2.45-9.65-2.46h0c-2.09.3-12.19-5.13-20.27-9.74l.38-.67a39.07,39.07,0,0,1-6.06,3.51,127.65,127.65,0,0,1,8.39,15.51c2.55,5.92,3.88,16.66,5.17,27,.39,3.15.8,6.41,1.23,9.46.78,5.52,3.31,8.38,6.52,12a44.46,44.46,0,0,1,11.46,21.38c2.14,8.75,2.46,15.13,1,19,1.86-.35,3.81-.7,5.87-1.05,19.1-3.22,27-15.29,29.65-20.88a39.83,39.83,0,0,1-22.66-13.35c-7.19-8.73-5.66-15.47-3.89-23.28a67.17,67.17,0,0,0,1.8-10.76,41,41,0,0,0-6.1-23.52l1.5-1ZM117.82,249.45c-7.59,10.09-7.8,17.45-.8,28.13,6.27,9.57,23.92,31.06,28.71,36.85,1-1.41,1.89-2.81,2.8-4.17,8-12,14.91-22.43,31.25-27.64-2.55-6.62-13.86-34.55-24.89-39.66-11.53-5.34-16.23-6-22.18-6.88l-2.35-.34a12,12,0,0,1-4.15-1.49C125.45,236.86,123.38,242.07,117.82,249.45Zm2.9-149.11c-.36.58-.71,1.16-1,1.75C120,101.5,120.36,100.92,120.72,100.34Zm-7.4,289.71c1.15-3.25,2.23-6.14,3-7.63.79-1.65,2.6-3.25,4.88-5.28.91-.8,1.89-1.67,2.87-2.6-3.4-1.19-8.72-4.63-11.16-14.57-2.9-11.87-13-20.15-15.25-21.86-.66,1.08-1.37,2.21-2.18,3.43-5.11,7.76-11.57,20.14-16.1,29.17-.21-.27-.4-.55-.6-.83,6.81,9.4,19.11,15.56,37.34,21ZM78.18,369.11c-.24-.36-.48-.72-.71-1.09C77.7,368.39,77.94,368.75,78.18,369.11Zm-4.47-38.46c.13-.73.26-1.44.4-2.14C74,329.21,73.84,329.92,73.71,330.65ZM118.64,104q.45-.88,1-1.77Q119.09,103.11,118.64,104ZM105,149.76c1.34,1.79,2.65,3.62,3.87,5.4l.35-.83c.46.19,6.62,2.77,13.6,6.28,2.36-6.08,9.8-25.17,12.13-30.42,1-2.31-2.32-6-5.87-10-4.06-4.51-8.66-9.62-10.27-15.74l-.12-.48c-6.91,13.41-6.48,27.92-12.31,42.67-.43,1.08-.9,2.1-1.38,3.11ZM74.12,328.48c.13-.7.27-1.38.41-2.05,5.3-3.6,15-8.23,26.86-5.3.69-5.08,2.11-21.63-6.39-32.59-6.16-8-14.5-11.8-21.86-15.19-1.76-.81-3.43-1.58-5-2.37-1.24-1.82-2.48-3.68-3.7-5.59,2.51,1.93,6,3.54,9.89,5.35,3,1.4,6.39,2.95,9.74,4.89a233.59,233.59,0,0,0,5.43-25.07c1-6.95-3.52-12.92-7.9-18.7-3-4-6.17-8.12-7.41-12.54-1.84-6.58-4.34-21.85-6-32.55.84-.86,1.68-1.7,2.53-2.51,1.62,10.65,4.32,27.49,6.22,34.28a28.53,28.53,0,0,0,4.85,8.81c1.16-3.07,3.29-8.59,5.65-14.11,7.38-17.3,9.64-17.62,10.85-17.79,2.84-.4,15.32-19.54,14.22-27.33-.42-3-4.42-9.17-9.08-15.5-11.57,20.32-34.61,24.92-48.18,52.58-14.81,30.18,7,57.12,20.34,76.55C86,296.8,78,308.62,74.12,328.48ZM93,340c6.16-9.35,7.64-14.11,8-15.95-13.14-3.36-23.53,3.58-27.32,6.64a93.33,93.33,0,0,0-1.44,17.43c.1,8,1.82,14.48,5.2,19.94C82,359.06,88.11,347.43,93,340Zm293.7-33.09-.13.05Zm4.31-1.94,4.57-2.05Zm46.86-63.67c-2.27,2.31-4.58,4.35-6.7,6.2l-1.79,1.59c-5.08,4.53-14.06,14.87-15.88,17,.07,1.85.11,3.63.11,5.23,0,9.33-2.5,10.78-8.11,13.17-.76.32-1.58.67-2.48,1.08a56.61,56.61,0,0,0-11.23,7.22,102.69,102.69,0,0,1,12.4,6.14l-3.16,1.51-.17-.1-.71.51c-1.49.69-3,1.38-4.5,2,21.69-9.77,43.56-21,43.51-49.18A61.38,61.38,0,0,0,437.9,241.26Zm-99.25,158.1c-.56.79-1.14,1.58-1.75,2.36C337.51,400.94,338.09,400.15,338.65,399.36Zm-44.78,28.11-.8-1.36c-1.06-1.81-1.86-3.3-2.48-4.62a86.82,86.82,0,0,1-32.77,11.94,96,96,0,0,1-12.54,1c0,.33,0,.63-.05.94,10.68,0,24.35-1.84,42.89-6.36,3-.74,5.87-1.54,8.6-2.37Zm-123-23.26c-.2-2-.38-4.11-.55-6.28a69.93,69.93,0,0,1,.11-10.59c.07-1.24.15-2.52.21-3.87-3-.67-10.8-1.07-17.19,9.88-1.21,2.07-2.5,4-3.82,5.86l-3.07-.68c4.39,1,9,2,13.76,3,3.81.81,7.31,1.72,10.55,2.7ZM354.81,314c-7.08.9-11.38,1.31-13.5,1.4l-.51.71c-1.66,2.27-3.08,4.24-4.34,5.91-.67.9-1.67,2-2.93,3.42-4.18,4.68-11.23,12.57-15,22.75a42.43,42.43,0,0,0,10.43-.1,56.23,56.23,0,0,1,23.17,2.07c1.2-11.17,2.79-21,8.88-27.38a41.39,41.39,0,0,1,4.24-3.86A54.19,54.19,0,0,0,354.81,314Zm10.06-209.25c-5.35,4.57-9.25,4.38-17,4-2.52-.12-5.5-.27-9.13-.29,4.94,4.22,14.27,12.75,16.22,18.64,1,3.14,4.53,6.81,8.59,9.9h0c5.3,4,11.58,7,14.73,6.6,2.39-.34,4.12-.49,5.64-.61a43.18,43.18,0,0,0,7.71-1.2c-.94-18.68-10.07-32.4-22.87-40.3C367.5,102.56,366.22,103.63,364.87,104.78ZM338.65,399.36a65.09,65.09,0,0,0,10.05-23.73c-1.15.19-2.29.38-3.39.58-9.21,1.7-13.61,6.2-18.13,12.06A92.06,92.06,0,0,0,338.65,399.36Zm10.05-23.73c.22-1,.44-2,.63-3C349.14,373.62,348.92,374.63,348.7,375.63Zm-17.31-52.08c1.16-1.3,2.17-2.43,2.77-3.23,1.24-1.65,2.66-3.61,4.31-5.87l.12-.17c-.9-1.38-4.85-6.73-16.56-14A216.85,216.85,0,0,1,296.84,282l.27-.31c-3.76-.86-7.77-1.9-11.58-2.93a43.31,43.31,0,0,1,6,24.33,70.82,70.82,0,0,1-1.87,11.21c-1.73,7.64-3,13.17,3.31,20.81a37.14,37.14,0,0,0,21.55,12.49c0-.1,0-.17,0-.18l1.13.33C319.52,336.83,327,328.49,331.39,323.55Zm-2,27.42a45.54,45.54,0,0,1-11.75,0,37.34,37.34,0,0,0-1.05,16.91c1.12,6.51,4.47,12.63,8.72,18.08,4.52-5.77,9.62-10.8,19.48-12.62,1.47-.27,3-.52,4.54-.76,1.27-6.64,1.89-13.24,2.52-19.47A53.37,53.37,0,0,0,329.39,351Zm-88.6,54c-1.32-4.05-5.48-9-10.48-14.4-7.33,3.72-15.78,7.95-22.88,9.31a74.64,74.64,0,0,1,6,16.5c2.42,9.44,13.14,14.83,29.07,15.17C242.84,422.19,242.77,411,240.79,405Zm112.3-109.79c4.54-5.56,4.8-9.12,4.43-10.94-14.65-3.64-28.41-5.76-32.1-6.3a31.39,31.39,0,0,1-13,5.43,21.23,21.23,0,0,1-2.85.2,43.79,43.79,0,0,1-7.28-.84,219.62,219.62,0,0,0,21.28,15.12c10.47,6.48,15,11.56,16.84,14C344,306.86,348.26,301.08,353.09,295.18ZM296.72,426.63c19.94-6.14,32.33-14.92,40.18-24.91a93.24,93.24,0,0,1-11.52-11.05c-.1.12-.19.24-.28.37a78.25,78.25,0,0,1-10,11.62,160.74,160.74,0,0,1-22,17.31,49.77,49.77,0,0,0,2.49,4.68Q296.14,425.66,296.72,426.63Zm-51.49,8.73c-1,0-1.94,0-2.87-.05,0-.3,0-.59,0-.9-17.27-.41-29-6.58-31.74-17.32-2.54-9.88-5.35-15.18-6.31-16.82a13.58,13.58,0,0,1-5.54-.65c-8.18-3-20.71-11.44-25.36-14.67,0,.88-.1,1.73-.15,2.57a68.72,68.72,0,0,0-.11,10.19c.2,2.59.43,5.11.66,7.45h0C207.64,416.37,211.07,435.35,245.23,435.36ZM173.37,98.62c.91.93,1.79,1.81,2.67,2.69.73-4.53,3.05-16.42,8.15-23.2a43.7,43.7,0,0,0,5.54-10.19c1,0,2.07,0,3.09,0a95.33,95.33,0,0,0-38.95,7.39A203.12,203.12,0,0,0,173.37,98.62ZM409.09,244.14c0-.15-.6-9.35-.89-11.39-.18-1.29-.74-12.8-1.2-25.47-2.4,5.61-6.06,13.63-8.55,16.38-1,1.1-2.63,4.43-4.52,8.29-.84,1.72-1.77,3.6-2.77,5.57a154.87,154.87,0,0,1,18.63,14.58C409.42,247.54,409.1,244.21,409.09,244.14ZM314.64,99a39.29,39.29,0,0,0-2,13.08c3.23-2.58,9.9-6.2,22.05-6.45,5.59-.12,9.85.09,13.26.26,7.46.36,10.54.51,15-3.32l3.08-2.6c.91.48,1.79,1,2.66,1.53a54.36,54.36,0,0,0-32.61-7.65,104.63,104.63,0,0,1-20.73,3.06C315.14,97.63,314.89,98.33,314.64,99ZM153.87,75.32c-.8.33-1.59.67-2.39,1C152.28,76,153.07,75.65,153.87,75.32Zm275.44,170a102.28,102.28,0,0,0,7.8-7.39c-4.81-18.1-17.11-32.44-27.73-46.47.42,17.25,1.51,39.76,1.67,40.9.31,2.16.88,11.18.91,11.56,0,.09.9,9.15,1.38,18,3.45-3.95,10-11.23,14.15-15ZM121.54,103.73c1.44,5.45,5.79,10.29,9.63,14.56s7.37,8.21,6.72,11.86c1.84,1,7.6,3.56,21.8,5.31a32.88,32.88,0,0,0,5.92.19l.58-.59a6.86,6.86,0,0,1,.49.53c9.57-.89,17.81-6.33,24.58-16.22-2.69-2.28-10.45-9.05-19.95-18.74a205,205,0,0,1-20.12-24.15l.29-.13c-16.32,7.36-25.34,15.43-30.75,24C121,101.46,121.24,102.6,121.54,103.73ZM437.9,241.26c-.23-1.13-.5-2.24-.79-3.35C437.4,239,437.67,240.13,437.9,241.26Z" style="fill:#5AB4F9"></path><path d="M311.93,98.06c-3.43,9.62-2.06,20.92-.61,32.88.28,2.27.55,4.57.8,6.86-5-3.4-22.85-16-29.46-24.11-3.82-4.72-8-14.23-11.54-23.52,14.67,5.92,29.43,7.23,41.17,6.89ZM118.86,383.66c-.66,1.39-1.68,4.11-2.78,7.22,8.77,2.62,18.91,5.07,30.47,7.65A68.73,68.73,0,0,0,151,391.9c6.89-11.8,15.65-12,19.76-11.31.07-5.64-.38-12.84-2.64-24.13a62.05,62.05,0,0,0-3.76-12.08c-15,6.73-29,22.61-29.23,22.81l-1.07-.93c-3,5.93-7.54,10-11,13C121.1,381,119.4,382.54,118.86,383.66ZM334.27,108.54c-14.6.44-20.34,6.08-21.51,7.43.22,4.68.81,9.59,1.42,14.62.29,2.37.57,4.77.83,7.16,4.32-1,12.78-2.41,19.64-.11,6.37,2.13,18.88.81,25.13,0-3.67-3.12-6.6-6.59-7.58-9.55C350.3,122.3,339,112.32,334.27,108.54ZM230.93,387c3.11-1.57,5.8-2.9,7.91-3.71l2.24-.87c2.85-1.12,5.95-2.32,9.77-3.59-.53-4.23-2.12-18.36-1.42-30.64.68-12-22.31-33.32-28.44-38.8-.05.3-.1.61-.16.91-2.35,11.9-12.48,22.22-25.42,27.44,2,1.77,7.31,7.26,12.7,20.56,3.39,8.36,12,17.36,19.58,25.29Zm-94.05-31a28.06,28.06,0,0,1-1.28,6.38c4.88-5.06,15.73-15.41,27.53-20.66a75,75,0,0,0-17-22.82,24.49,24.49,0,0,1-9.69,7.92A152.44,152.44,0,0,1,136.88,356Zm39.74-17.5c19.67.13,38.23-12.76,41.39-28.76,2.83-14.4-2.31-29-3.68-32.49-4.81,1.16-9.64,2.25-14.25,3.29-6.89,1.55-13.39,3-18,4.36-16.4,4.75-22.91,14.53-31.14,26.92-1,1.53-2.08,3.11-3.16,4.7a76.09,76.09,0,0,1,18.06,24.1A30.8,30.8,0,0,1,176.62,338.53Zm192.46-75.48c7.75-5.94,13.77-15.82,18.31-24.5a73.56,73.56,0,0,0-16.29-7.94c-9.69-3.07-22.5-5.57-32.79-7.57-13-2.53-18.05-3.62-19.45-5a11.66,11.66,0,0,1-1.45-1.8,19.2,19.2,0,0,0,3.9,12.18c2,2.59,4.16,5.16,6.28,7.64,7.77,9.07,15.1,17.64,10.85,26.89a37.37,37.37,0,0,1-9.84,12.6c5.45.85,16.17,2.68,27.71,5.47C356,278.32,357.15,272.21,369.08,263.05ZM115.39,167.72c1,7.37-8.49,24.71-14.41,29.41,2.85,2.59,8.93,8.61,12.77,15.92,3.2,6.11,6.8,12.51,10.84,16.37,2.1-6.19,8-21.64,15.22-24.59,2.09-.85,3.67-3.75,4.31-8,1.22-8-1.17-19.53-6.65-24.05-6.81-5.6-20.72-12-26.64-14.64C113.29,162,115.07,165.47,115.39,167.72ZM225.25,72.93q1.42.39,2.85.81a122.5,122.5,0,0,0-9.33,18.74c4.87-1.4,15.06-2.63,24.23,7.19,5.92,6.34,8.8,14.49,11.33,21.68s4.73,13.41,9.15,14.74a169.05,169.05,0,0,0,18.77,4.36c.39-10-1.69-23-2.06-25.26-4.33-5.52-9-16.45-12.7-26.53C254.63,83.21,240.41,77.1,225.25,72.93ZM99.09,335.62c2,1.44,13.3,10.29,16.57,23.67,2.56,10.48,8.53,12.51,10.69,12.91A26.75,26.75,0,0,0,134,355.8a151,151,0,0,0-.38-27.93,24.9,24.9,0,0,1-3.55.76c-7.65,1.08-16.47-1-26.28-3.84C103.39,326.72,102.23,330.13,99.09,335.62ZM144,316.88c-3.8-4.58-21.26-25.75-28.56-36.46-3,2.25-10.56,8.56-11.84,14.64l-1.91-.4c4.37,11,3.08,23.28,2.49,27.25C121.58,327,134.73,329.41,144,316.88Zm15.32-178.56c-13.65-1.68-19.87-4.07-22.47-5.44-2.85,6.76-9.48,23.8-11.52,29a87.16,87.16,0,0,1,13.94,8.68c3.63,3,6,8.29,7.18,13.92,5-2.2,17.49-8.94,21-22.54,3.38-13-.19-20.48-2.18-23.42A36.66,36.66,0,0,1,159.34,138.32Zm27.15-58.48c-5.79,7.7-7.84,23.46-7.86,23.62l-.48-.06c7,6.89,12.53,11.7,14.8,13.64a64.09,64.09,0,0,1,8.51-7.62c5.8-4.67,12.37-10,13.67-15,1.37-5.25,6-14.66,10.11-21.54a130.32,130.32,0,0,0-32.41-5A48.34,48.34,0,0,1,186.49,79.84ZM198.25,150c3.47,11.25.87,19.2-1.64,26.88-1.48,4.53-3,9.2-3.32,14.6a24.57,24.57,0,0,0,1.35,9.34l.07,0,.27-.14c.91-.34,22.53-8.28,35.44-5.68A73.56,73.56,0,0,0,248,196.64c-2.16-8.7,2.72-24.14,7.65-32.27,2.6-4.29,8-6.38,13.19-8.4,6.12-2.38,11.91-4.62,12.9-10,.15-.82.26-1.7.35-2.61a175.36,175.36,0,0,1-19.4-4.5c-5.82-1.75-8.23-8.6-11-16.53-2.44-6.93-5.21-14.77-10.72-20.68-9.8-10.5-20.74-6.78-23.2-5.75-1.87,5.66-8.53,11-14.44,15.78-3.78,3-7.36,5.91-8.87,8.24a51.76,51.76,0,0,1-7.5,9.15C188.94,130.73,194,136,198.25,150ZM335.83,261.72c3.48-7.58-3.27-15.47-10.42-23.82-2.16-2.51-4.38-5.11-6.39-7.77-4.52-6-5.06-12.35-4.09-19-.23-.63-.36-1.06-.37-1.12l.57-.16c.59-3.43,1.52-6.93,2.47-10.5s1.94-7.26,2.63-11.06.07-6.78-1.81-9.17c-4.08-5.16-12.84-5.67-12.93-5.68v-.18a99.39,99.39,0,0,1-12.4,7.21,165.26,165.26,0,0,0-20.17,11.91c-7.6,5.36-11.6,13.15-13.73,21.55l.15.29-.26.13c-2.22,9-2.31,18.76-2.39,26.93-.06,6.67-.12,12.43-1.23,16.45a11.14,11.14,0,0,1-3.54,5.14c7.72,4.37,16.3,8.81,17.89,9,1-.1,3.15.46,10.66,2.54,9.07,2.52,22.78,6.32,29.06,6.33C319.05,280.71,331.09,272,335.83,261.72Zm-48.47,135c-2.52-17.82-13.76-20.4-14.23-20.5l-.36-.07a165.4,165.4,0,0,0-30.64,9l-2.26.87c-1.81.7-4.17,1.85-6.89,3.22,5,5.4,9.12,10.45,10.55,14.86,2.1,6.44,2.18,17.91,1.86,27.48a97.41,97.41,0,0,0,12-1,84.21,84.21,0,0,0,32.08-11.79,24.5,24.5,0,0,1-1-7.76A109,109,0,0,0,287.36,396.69ZM292,417.21a159.79,159.79,0,0,0,21.11-16.67,74.78,74.78,0,0,0,9.65-11.22l.7-.93c-4.7-5.92-8.48-12.67-9.73-20a39.55,39.55,0,0,1-.09-12.88c-4.28,6.61-13,15.68-29.47,18.46-2.22.37-4.31.75-6.3,1.12,4.26,2.46,10.47,8.19,12.31,21.18A112.06,112.06,0,0,1,291.4,411,24.63,24.63,0,0,0,292,417.21Zm-205.4-140a42.44,42.44,0,0,1,10.65,9.59,30.87,30.87,0,0,1,3.84,6.49c2.14-6.78,9.85-13.09,12.77-15.28-6.85-11.05-6.36-19.65,1.63-30.27,6.32-8.4,7.84-13.72,8.17-15.24-4.78-4-8.77-11-12.49-18.09-4-7.59-10.73-13.89-12.89-15.79C95.66,201,89,216.2,83.86,230.08l0,0c4.74,6.25,9.65,12.71,8.46,20.86A238.81,238.81,0,0,1,86.63,277.19Zm274.05,36.06a62.76,62.76,0,0,1,7.13,3.82h0a100.91,100.91,0,0,1,14.48-8.14h0a105.27,105.27,0,0,1-16.36,3.59Zm43.72-31.47c4.88-2.07,6.35-2.7,6.36-10.53,0-4.56-.34-10.61-.72-15.83l-.44.45a155.15,155.15,0,0,0-19.78-15.76c-4.66,8.89-10.87,19-19,25.23-12.57,9.65-11.77,15-11.59,15.74a6.18,6.18,0,0,1,.46.75c5.5,1.4,11.08,3,16.27,4.83s9.5,3.45,13.08,4.92l-.13-.16a59.68,59.68,0,0,1,12.93-8.52C402.77,282.48,403.62,282.12,404.4,281.78ZM147,187.46a35.59,35.59,0,0,1,0,9.84c-.61,4-2,7.06-4,8.85a38.83,38.83,0,0,0,22.74,5.11c10.82-1,21.54-6.28,26.34-8.94a27.36,27.36,0,0,1-1.66-11c.33-5.77,1.92-10.63,3.46-15.33,2.48-7.59,4.82-14.76,1.63-25.14-4.61-14.93-9.89-19.21-10.8-19.86a32.08,32.08,0,0,1-16.14,7.29h0c2.28,4.06,5,12,1.77,24.41C166.22,178.32,151.9,185.43,147,187.46ZM375,289.37c-4.64-1.62-9.58-3.08-14.5-4.36.13,2.68-.86,6.66-5.2,12s-8.39,10.73-11.81,15.4c3.25-.28,9.66-1,22-2.72,18.31-2.59,29-8.64,32.49-10.92A192,192,0,0,0,375,289.37Zm16.66-144.61c-1.52.36-2.75.59-3.87.75-1.28.18-2.41.27-3.67.38-1.48.12-3.17.26-5.48.58-3.81.54-10.18-2.38-15.76-6.42-.6.09-1.41.22-2.39.35-6.35.9-19.66,2.35-26.77,0-6.33-2.12-14.55-.64-18.45.29a87.42,87.42,0,0,1,.25,15.06c-.6,6.89-3.18,11.48-7.17,15.18,3.34.59,8.94,2.19,12.3,6.42,2.42,3.06,3.23,6.92,2.39,11.48-.71,3.91-1.71,7.66-2.68,11.28a108.43,108.43,0,0,0-2.49,10.74,15.89,15.89,0,0,0,3,5.17c1.15,1,10.08,2.7,18,4.24,10.36,2,23.26,4.52,33.11,7.65A76,76,0,0,1,388.73,236c.94-1.86,1.82-3.64,2.62-5.28,2.15-4.38,3.7-7.55,5-9,2.93-3.24,8.5-16.49,10.4-21.33l0,0c-.15-4.51-.27-8.95-.34-12.95h0c-8.79-12.05-15.69-24.14-14.85-38.47C391.66,147.56,391.69,146.15,391.68,144.76Zm-223.44,69.1c-.74.11-1.49.2-2.23.26a41,41,0,0,1-25.79-6.29c-5.6,3.14-11.07,16.91-13.23,23.51a9.62,9.62,0,0,0,3.8,1.56l2.33.34c6.18.89,11.06,1.59,23,7.11,12.27,5.69,24,34.91,26.45,41.45,4.58-1.26,10.57-2.61,16.89-4,10.56-2.38,23-5.19,33.29-8.57-3-6.55-14.26-31.08-21.7-40.43-1.66-2.09-3.49-4.21-5.27-6.26C201,217,196.15,211.36,193.2,205,188.42,207.63,178.65,212.39,168.24,213.86Zm61.62-16.07c-11.62-2.34-31.88,4.84-33.75,5.51l-.4.25c2.79,6.14,7.56,11.66,12.23,17.07,1.79,2.07,3.64,4.22,5.34,6.35,7.85,9.87,19.36,35,22.19,41.29,9.14-3.24,16-7,17.23-11.32,1-3.65,1.06-9.24,1.12-15.71.08-8.17.17-17.84,2.31-27-1.39-2.7-4.66-9.16-7.14-14.78C246.52,199.65,239.94,199.83,229.86,197.79ZM271.27,190a167,167,0,0,1,20.5-12.11c12.38-6.48,19.85-10.38,20.9-22.44a82.56,82.56,0,0,0-.2-14l-.09,0-.57-.39c-.85-.56-18.56-12.48-28.12-22,.95,6.79,2.32,19.34.84,27.41-1.28,7-8.1,9.62-14.69,12.18-5,1.93-9.67,3.76-11.77,7.21-5.52,9.1-9.72,24.85-6.85,31.51,1.86,4.32,4.31,9.32,6,12.75C259.7,202.35,263.92,195.2,271.27,190ZM199.81,396.92c6.43,2.38,18.87-3.68,28.45-8.53l-2.65-2.78c-7.77-8.12-16.57-17.32-20.17-26.2-6.35-15.66-12.44-19.89-12.5-19.93l.67-1a49.36,49.36,0,0,1-17,3,27.45,27.45,0,0,0-9.59,1.88,65.41,65.41,0,0,1,3.89,12.6c2.44,12.19,2.82,19.72,2.68,25.65C175.72,383,190.83,393.61,199.81,396.92ZM391.68,144.76c0-1,0-2-.07-2.94C391.66,142.79,391.68,143.77,391.68,144.76ZM274.06,372.92a3.25,3.25,0,0,0,.52-.6c1.11-1.63,2.51-6.19-.5-18.47-2.69-11-7-15.87-10.81-20.15-3.25-3.66-6.32-7.12-7.22-13.5-.43-3.07-.84-6.34-1.23-9.51-1.27-10.18-2.58-20.71-5-26.26A129,129,0,0,0,241.47,269c-6.84,2.92-15.46,5.4-24.32,7.61,1.51,3.89,5.67,16.13,4.32,29.42,2.1,1.81,31.69,27.48,30.83,42.38-.66,11.59.76,24.89,1.34,29.59,3.43-1.07,7.44-2.17,12.28-3.3l-4-.86,9.72-.39Zm5.65-95.78c-4.34-1.21-8.83-2.45-9.65-2.46h0c-2.09.3-12.19-5.13-20.27-9.74l.38-.67a39.07,39.07,0,0,1-6.06,3.51,127.65,127.65,0,0,1,8.39,15.51c2.55,5.92,3.88,16.66,5.17,27,.39,3.15.8,6.41,1.23,9.46.78,5.52,3.31,8.38,6.52,12a44.46,44.46,0,0,1,11.46,21.38c2.14,8.75,2.46,15.13,1,19,1.86-.35,3.81-.7,5.87-1.05,19.1-3.22,27-15.29,29.65-20.88a39.83,39.83,0,0,1-22.66-13.35c-7.19-8.73-5.66-15.47-3.89-23.28a67.17,67.17,0,0,0,1.8-10.76,41,41,0,0,0-6.1-23.52l1.5-1ZM117.82,249.45c-7.59,10.09-7.8,17.45-.8,28.13,6.27,9.57,23.92,31.06,28.71,36.85,1-1.41,1.89-2.81,2.8-4.17,8-12,14.91-22.43,31.25-27.64-2.55-6.62-13.86-34.55-24.89-39.66-11.53-5.34-16.23-6-22.18-6.88l-2.35-.34a12,12,0,0,1-4.15-1.49C125.45,236.86,123.38,242.07,117.82,249.45Zm2.9-149.11c-.36.58-.71,1.16-1,1.75C120,101.5,120.36,100.92,120.72,100.34Zm-7.4,289.71c1.15-3.25,2.23-6.14,3-7.63.79-1.65,2.6-3.25,4.88-5.28.91-.8,1.89-1.67,2.87-2.6-3.4-1.19-8.72-4.63-11.16-14.57-2.9-11.87-13-20.15-15.25-21.86-.66,1.08-1.37,2.21-2.18,3.43-5.11,7.76-11.57,20.14-16.1,29.17-.21-.27-.4-.55-.6-.83,6.81,9.4,19.11,15.56,37.34,21ZM78.18,369.11c-.24-.36-.48-.72-.71-1.09C77.7,368.39,77.94,368.75,78.18,369.11Zm-4.47-38.46c.13-.73.26-1.44.4-2.14C74,329.21,73.84,329.92,73.71,330.65ZM118.64,104q.45-.88,1-1.77Q119.09,103.11,118.64,104ZM105,149.76c1.34,1.79,2.65,3.62,3.87,5.4l.35-.83c.46.19,6.62,2.77,13.6,6.28,2.36-6.08,9.8-25.17,12.13-30.42,1-2.31-2.32-6-5.87-10-4.06-4.51-8.66-9.62-10.27-15.74l-.12-.48c-6.91,13.41-6.48,27.92-12.31,42.67-.43,1.08-.9,2.1-1.38,3.11ZM74.12,328.48c.13-.7.27-1.38.41-2.05,5.3-3.6,15-8.23,26.86-5.3.69-5.08,2.11-21.63-6.39-32.59-6.16-8-14.5-11.8-21.86-15.19-1.76-.81-3.43-1.58-5-2.37-1.24-1.82-2.48-3.68-3.7-5.59,2.51,1.93,6,3.54,9.89,5.35,3,1.4,6.39,2.95,9.74,4.89a233.59,233.59,0,0,0,5.43-25.07c1-6.95-3.52-12.92-7.9-18.7-3-4-6.17-8.12-7.41-12.54-1.84-6.58-4.34-21.85-6-32.55.84-.86,1.68-1.7,2.53-2.51,1.62,10.65,4.32,27.49,6.22,34.28a28.53,28.53,0,0,0,4.85,8.81c1.16-3.07,3.29-8.59,5.65-14.11,7.38-17.3,9.64-17.62,10.85-17.79,2.84-.4,15.32-19.54,14.22-27.33-.42-3-4.42-9.17-9.08-15.5-11.57,20.32-34.61,24.92-48.18,52.58-14.81,30.18,7,57.12,20.34,76.55C86,296.8,78,308.62,74.12,328.48ZM93,340c6.16-9.35,7.64-14.11,8-15.95-13.14-3.36-23.53,3.58-27.32,6.64a93.33,93.33,0,0,0-1.44,17.43c.1,8,1.82,14.48,5.2,19.94C82,359.06,88.11,347.43,93,340Zm293.7-33.09-.13.05Zm4.31-1.94,4.57-2.05Zm46.86-63.67c-2.27,2.31-4.58,4.35-6.7,6.2l-1.79,1.59c-5.08,4.53-14.06,14.87-15.88,17,.07,1.85.11,3.63.11,5.23,0,9.33-2.5,10.78-8.11,13.17-.76.32-1.58.67-2.48,1.08a56.61,56.61,0,0,0-11.23,7.22,102.69,102.69,0,0,1,12.4,6.14l-3.16,1.51-.17-.1-.71.51c-1.49.69-3,1.38-4.5,2,21.69-9.77,43.56-21,43.51-49.18A61.38,61.38,0,0,0,437.9,241.26Zm-99.25,158.1c-.56.79-1.14,1.58-1.75,2.36C337.51,400.94,338.09,400.15,338.65,399.36Zm-44.78,28.11-.8-1.36c-1.06-1.81-1.86-3.3-2.48-4.62a86.82,86.82,0,0,1-32.77,11.94,96,96,0,0,1-12.54,1c0,.33,0,.63-.05.94,10.68,0,24.35-1.84,42.89-6.36,3-.74,5.87-1.54,8.6-2.37Zm-123-23.26c-.2-2-.38-4.11-.55-6.28a69.93,69.93,0,0,1,.11-10.59c.07-1.24.15-2.52.21-3.87-3-.67-10.8-1.07-17.19,9.88-1.21,2.07-2.5,4-3.82,5.86l-3.07-.68c4.39,1,9,2,13.76,3,3.81.81,7.31,1.72,10.55,2.7ZM354.81,314c-7.08.9-11.38,1.31-13.5,1.4l-.51.71c-1.66,2.27-3.08,4.24-4.34,5.91-.67.9-1.67,2-2.93,3.42-4.18,4.68-11.23,12.57-15,22.75a42.43,42.43,0,0,0,10.43-.1,56.23,56.23,0,0,1,23.17,2.07c1.2-11.17,2.79-21,8.88-27.38a41.39,41.39,0,0,1,4.24-3.86A54.19,54.19,0,0,0,354.81,314Zm10.06-209.25c-5.35,4.57-9.25,4.38-17,4-2.52-.12-5.5-.27-9.13-.29,4.94,4.22,14.27,12.75,16.22,18.64,1,3.14,4.53,6.81,8.59,9.9h0c5.3,4,11.58,7,14.73,6.6,2.39-.34,4.12-.49,5.64-.61a43.18,43.18,0,0,0,7.71-1.2c-.94-18.68-10.07-32.4-22.87-40.3C367.5,102.56,366.22,103.63,364.87,104.78ZM338.65,399.36a65.09,65.09,0,0,0,10.05-23.73c-1.15.19-2.29.38-3.39.58-9.21,1.7-13.61,6.2-18.13,12.06A92.06,92.06,0,0,0,338.65,399.36Zm10.05-23.73c.22-1,.44-2,.63-3C349.14,373.62,348.92,374.63,348.7,375.63Zm-17.31-52.08c1.16-1.3,2.17-2.43,2.77-3.23,1.24-1.65,2.66-3.61,4.31-5.87l.12-.17c-.9-1.38-4.85-6.73-16.56-14A216.85,216.85,0,0,1,296.84,282l.27-.31c-3.76-.86-7.77-1.9-11.58-2.93a43.31,43.31,0,0,1,6,24.33,70.82,70.82,0,0,1-1.87,11.21c-1.73,7.64-3,13.17,3.31,20.81a37.14,37.14,0,0,0,21.55,12.49c0-.1,0-.17,0-.18l1.13.33C319.52,336.83,327,328.49,331.39,323.55Zm-2,27.42a45.54,45.54,0,0,1-11.75,0,37.34,37.34,0,0,0-1.05,16.91c1.12,6.51,4.47,12.63,8.72,18.08,4.52-5.77,9.62-10.8,19.48-12.62,1.47-.27,3-.52,4.54-.76,1.27-6.64,1.89-13.24,2.52-19.47A53.37,53.37,0,0,0,329.39,351Zm-88.6,54c-1.32-4.05-5.48-9-10.48-14.4-7.33,3.72-15.78,7.95-22.88,9.31a74.64,74.64,0,0,1,6,16.5c2.42,9.44,13.14,14.83,29.07,15.17C242.84,422.19,242.77,411,240.79,405Zm112.3-109.79c4.54-5.56,4.8-9.12,4.43-10.94-14.65-3.64-28.41-5.76-32.1-6.3a31.39,31.39,0,0,1-13,5.43,21.23,21.23,0,0,1-2.85.2,43.79,43.79,0,0,1-7.28-.84,219.62,219.62,0,0,0,21.28,15.12c10.47,6.48,15,11.56,16.84,14C344,306.86,348.26,301.08,353.09,295.18ZM296.72,426.63c19.94-6.14,32.33-14.92,40.18-24.91a93.24,93.24,0,0,1-11.52-11.05c-.1.12-.19.24-.28.37a78.25,78.25,0,0,1-10,11.62,160.74,160.74,0,0,1-22,17.31,49.77,49.77,0,0,0,2.49,4.68Q296.14,425.66,296.72,426.63Zm-51.49,8.73c-1,0-1.94,0-2.87-.05,0-.3,0-.59,0-.9-17.27-.41-29-6.58-31.74-17.32-2.54-9.88-5.35-15.18-6.31-16.82a13.58,13.58,0,0,1-5.54-.65c-8.18-3-20.71-11.44-25.36-14.67,0,.88-.1,1.73-.15,2.57a68.72,68.72,0,0,0-.11,10.19c.2,2.59.43,5.11.66,7.45h0C207.64,416.37,211.07,435.35,245.23,435.36ZM173.37,98.62c.91.93,1.79,1.81,2.67,2.69.73-4.53,3.05-16.42,8.15-23.2a43.7,43.7,0,0,0,5.54-10.19c1,0,2.07,0,3.09,0a95.33,95.33,0,0,0-38.95,7.39A203.12,203.12,0,0,0,173.37,98.62ZM409.09,244.14c0-.15-.6-9.35-.89-11.39-.18-1.29-.74-12.8-1.2-25.47-2.4,5.61-6.06,13.63-8.55,16.38-1,1.1-2.63,4.43-4.52,8.29-.84,1.72-1.77,3.6-2.77,5.57a154.87,154.87,0,0,1,18.63,14.58C409.42,247.54,409.1,244.21,409.09,244.14ZM314.64,99a39.29,39.29,0,0,0-2,13.08c3.23-2.58,9.9-6.2,22.05-6.45,5.59-.12,9.85.09,13.26.26,7.46.36,10.54.51,15-3.32l3.08-2.6c.91.48,1.79,1,2.66,1.53a54.36,54.36,0,0,0-32.61-7.65,104.63,104.63,0,0,1-20.73,3.06C315.14,97.63,314.89,98.33,314.64,99ZM153.87,75.32c-.8.33-1.59.67-2.39,1C152.28,76,153.07,75.65,153.87,75.32Zm275.44,170a102.28,102.28,0,0,0,7.8-7.39c-4.81-18.1-17.11-32.44-27.73-46.47.42,17.25,1.51,39.76,1.67,40.9.31,2.16.88,11.18.91,11.56,0,.09.9,9.15,1.38,18,3.45-3.95,10-11.23,14.15-15ZM121.54,103.73c1.44,5.45,5.79,10.29,9.63,14.56s7.37,8.21,6.72,11.86c1.84,1,7.6,3.56,21.8,5.31a32.88,32.88,0,0,0,5.92.19l.58-.59a6.86,6.86,0,0,1,.49.53c9.57-.89,17.81-6.33,24.58-16.22-2.69-2.28-10.45-9.05-19.95-18.74a205,205,0,0,1-20.12-24.15l.29-.13c-16.32,7.36-25.34,15.43-30.75,24C121,101.46,121.24,102.6,121.54,103.73ZM437.9,241.26c-.23-1.13-.5-2.24-.79-3.35C437.4,239,437.67,240.13,437.9,241.26Z" style="fill:#fff;opacity:0.6000000000000001"></path></g><g id="freepik--Ball--inject-1--inject-36"><path d="M314.17,162.84a76.5,76.5,0,0,0-13.06,38.66" style="fill:none;stroke:#2e353a;stroke-linecap:round;stroke-linejoin:round;stroke-width:0.75px"></path><path d="M328.81,146.83a76,76,0,0,0-7.76,7.33" style="fill:none;stroke:#2e353a;stroke-linecap:round;stroke-linejoin:round;stroke-width:0.75px"></path><path d="M452,220a76.29,76.29,0,0,0-25.44-72.37" style="fill:none;stroke:#2e353a;stroke-linecap:round;stroke-linejoin:round;stroke-width:0.75px"></path><path d="M439.57,249.39a75.9,75.9,0,0,0,8.26-15.26" style="fill:none;stroke:#2e353a;stroke-linecap:round;stroke-linejoin:round;stroke-width:0.75px"></path><path d="M332.4,267.33a76.47,76.47,0,0,0,14.9,8.43" style="fill:none;stroke:#2e353a;stroke-linecap:round;stroke-linejoin:round;stroke-width:0.75px"></path><path d="M362.3,262.5a58.29,58.29,0,0,0,7.53,1.48" style="fill:none;stroke:#2e353a;stroke-linecap:round;stroke-linejoin:round;stroke-width:0.75px"></path><path d="M323.85,230.05A59.21,59.21,0,0,0,358,261.17" style="fill:none;stroke:#2e353a;stroke-linecap:round;stroke-linejoin:round;stroke-width:0.75px"></path><path d="M319.11,213.93a58.3,58.3,0,0,0,1.75,8.08" style="fill:none;stroke:#2e353a;stroke-linecap:round;stroke-linejoin:round;stroke-width:0.75px"></path><path d="M353.8,151.45a59,59,0,0,0-35.29,54" style="fill:none;stroke:#2e353a;stroke-linecap:round;stroke-linejoin:round;stroke-width:0.75px"></path><path d="M431.48,181.66a59.08,59.08,0,0,0-72.64-32.15" style="fill:none;stroke:#2e353a;stroke-linecap:round;stroke-linejoin:round;stroke-width:0.75px"></path><path d="M400.4,259.87a59.1,59.1,0,0,0,35-65.68" style="fill:none;stroke:#2e353a;stroke-linecap:round;stroke-linejoin:round;stroke-width:0.75px"></path><circle cx="378.97" cy="205.04" r="53.74" transform="translate(-33.98 328.03) rotate(-45)" style="fill:#5AB4F9;stroke:#2e353a;stroke-linecap:round;stroke-linejoin:round"></circle><path d="M369,193a8.15,8.15,0,1,1-9.15-6.6A8,8,0,0,1,369,193Z" style="fill:#fff;stroke:#2e353a;stroke-linecap:round;stroke-linejoin:round"></path><path d="M327.61,220.82A53.75,53.75,0,0,0,407,250.88c-35.85-14-42.76-54.62-42.76-54.62l-5.62-2.5C340.44,201.31,331.75,212,327.61,220.82Z" style="fill:#2e353a;stroke:#2e353a;stroke-linecap:round;stroke-linejoin:round"></path><path d="M428,183a53.76,53.76,0,0,0-76.92-23.89,47.1,47.1,0,0,0,9.92,35l3.27,2.17S387.66,166.91,428,183Z" style="fill:#2e353a;stroke:#2e353a;stroke-linecap:round;stroke-linejoin:round"></path><path d="M369,193a8.15,8.15,0,1,1-9.15-6.6A8,8,0,0,1,369,193Z" style="fill:#fff;stroke:#2e353a;stroke-linecap:round;stroke-linejoin:round"></path><ellipse cx="412.76" cy="199.53" rx="12.66" ry="12.29" transform="translate(-23.84 59.64) rotate(-8.03)" style="fill:#fff;opacity:0.6000000000000001"></ellipse></g><g id="freepik--Character--inject-1--inject-36"><path d="M279.1,191.15s19.12,9.39,22.4,66.21" style="fill:none;stroke:#fff;stroke-linecap:round;stroke-linejoin:round;stroke-width:6px"></path><path d="M105.22,202.91a127.42,127.42,0,0,0-7.15,29.37" style="fill:none;stroke:#2e353a;stroke-linecap:round;stroke-linejoin:round;stroke-width:0.75px"></path><path d="M119.12,176a127.1,127.1,0,0,0-10.24,18.13" style="fill:none;stroke:#2e353a;stroke-linecap:round;stroke-linejoin:round;stroke-width:0.75px"></path><path d="M327.16,173.24a126.6,126.6,0,0,0-20.76-22.55" style="fill:none;stroke:#2e353a;stroke-linecap:round;stroke-linejoin:round;stroke-width:0.75px"></path><path d="M328.13,320.25A127.19,127.19,0,0,0,348.47,273" style="fill:none;stroke:#2e353a;stroke-linecap:round;stroke-linejoin:round;stroke-width:0.75px"></path><path d="M215.7,374.09a126.11,126.11,0,0,0,17.92-.06" style="fill:none;stroke:#2e353a;stroke-linecap:round;stroke-linejoin:round;stroke-width:0.75px"></path><path d="M149.5,350.16a127.17,127.17,0,0,0,47.31,21.23" style="fill:none;stroke:#2e353a;stroke-linecap:round;stroke-linejoin:round;stroke-width:0.75px"></path><path d="M199.48,341.51A96.64,96.64,0,0,0,212,344" style="fill:none;stroke:#2e353a;stroke-linecap:round;stroke-linejoin:round;stroke-width:0.75px"></path><path d="M135.78,287.75a98.07,98.07,0,0,0,56.55,51.57" style="fill:none;stroke:#2e353a;stroke-linecap:round;stroke-linejoin:round;stroke-width:0.75px"></path><path d="M127.92,261a98.61,98.61,0,0,0,2.89,13.39" style="fill:none;stroke:#2e353a;stroke-linecap:round;stroke-linejoin:round;stroke-width:0.75px"></path><path d="M185.4,157.52a97.76,97.76,0,0,0-58.47,89.53" style="fill:none;stroke:#2e353a;stroke-linecap:round;stroke-linejoin:round;stroke-width:0.75px"></path><path d="M270.23,160.56a98,98,0,0,0-76.48-6.26" style="fill:none;stroke:#2e353a;stroke-linecap:round;stroke-linejoin:round;stroke-width:0.75px"></path><path d="M299.45,184.12a98,98,0,0,0-19.67-17.8" style="fill:none;stroke:#2e353a;stroke-linecap:round;stroke-linejoin:round;stroke-width:0.75px"></path><path d="M303.85,189.74c-1.4-1.93-2.86-3.8-4.4-5.62" style="fill:none;stroke:#2e353a;stroke-linecap:round;stroke-linejoin:round;stroke-width:0.75px"></path><path d="M316,281.82A96.92,96.92,0,0,0,320.77,265" style="fill:none;stroke:#2e353a;stroke-linecap:round;stroke-linejoin:round;stroke-width:0.75px"></path><path d="M291.82,318.07A97.81,97.81,0,0,0,316,281.82" style="fill:none;stroke:#2e353a;stroke-linecap:round;stroke-linejoin:round;stroke-width:0.75px"></path><path d="M262.6,337.15a96.76,96.76,0,0,0,21.27-12.33" style="fill:none;stroke:#2e353a;stroke-linecap:round;stroke-linejoin:round;stroke-width:0.75px"></path><path d="M212.33,156.93c-47.2,6.66-79.72,52.8-72.62,103.06s51.11,85.58,98.31,78.92,79.72-52.81,72.62-103.06S259.53,150.27,212.33,156.93ZM229.65,279.6c-16.43,2.32-31.76-10-34.23-27.48s8.85-33.56,25.28-35.88,31.76,10,34.23,27.48S246.08,277.27,229.65,279.6Z" style="fill:#fff;stroke:#2e353a;stroke-linecap:round;stroke-linejoin:round"></path><path d="M254.08,257.32c15.54-3.88,32.84-8,52-12.27a98.49,98.49,0,0,0-1-12.27c-.2-1.38-.43-2.75-.68-4.1q-27.6,6.15-50.18,11.75c.26,1.07.48,2.17.64,3.29A33.53,33.53,0,0,1,254.08,257.32Z" style="fill:#2e353a"></path><path d="M142.31,220.25c20.82-7.54,63.9-21.45,138.84-38.78A90.43,90.43,0,0,0,266,168.23c-55.77,13.19-92.62,24.19-115.33,31.79A92.82,92.82,0,0,0,142.31,220.25Z" style="fill:#2e353a"></path><path d="M190.06,238.64a31.53,31.53,0,0,1,13-20.76c-31.16,8.68-51.68,15.6-64,20.14a97.54,97.54,0,0,0,.08,17.42C148.15,252,164.45,246.19,190.06,238.64Z" style="fill:#2e353a"></path><path d="M291.89,195.72c-27.4,6.2-50.82,12-70.68,17.24A29.35,29.35,0,0,1,236,218.31a30.5,30.5,0,0,1,8.54,5.52c16.22-4.11,34.45-8.47,54.84-13.06A94.62,94.62,0,0,0,291.89,195.72Z" style="fill:#2e353a"></path><path d="M268.79,321.28a87.12,87.12,0,0,0,21.32-22c-48.18,11.32-82.54,21.06-106,28.48a83,83,0,0,0,28.79,8.41C228.29,331.75,246.82,326.74,268.79,321.28Z" style="fill:#2e353a"></path><path d="M202.84,271a32.39,32.39,0,0,1-10.76-13.93c-23.4,6.84-39.43,12.33-49.58,16.1a95.5,95.5,0,0,0,5.78,15.28C159.05,284.47,176.68,278.48,202.84,271Z" style="fill:#2e353a"></path><path d="M300.38,279.2A94.4,94.4,0,0,0,305,261.41c-27.34,6.15-50.77,11.9-70.73,17.15-.81.25-1.63.46-2.47.65-35.85,9.48-60.2,17.25-75.62,22.67a92.23,92.23,0,0,0,11.41,13.37C191.81,307.05,234,294.39,300.38,279.2Z" style="fill:#2e353a"></path><g style="opacity:0.6000000000000001;mix-blend-mode:multiply"><path d="M248.82,313.32c.73-1.72,10.71-22.5,4.37-44.53-.5-1.75-1.05-3.44-1.62-5.06a29.41,29.41,0,0,1-21.92,15.87,28.93,28.93,0,0,1-20.79-5.15,31.82,31.82,0,0,1-16.64-17c-1.19,7.34-2,15.6-.94,21.08,2.29,11.63,9.41,25.47,17.31,33.4s17.24,16.93,18.77,20.92a11.88,11.88,0,0,1,.74,3.5c1.47-.13,2.94-.28,4.42-.49a81.14,81.14,0,0,0,20.66-5.76,11,11,0,0,1-2.52-3.77C249.31,321.32,248.1,315,248.82,313.32Z" style="fill:#5AB4F9"></path><path d="M181.77,206.56c.77.86,8,15.34,11.36,21,.17.29.32.58.47.88a29.36,29.36,0,0,1,21.6-15.26,28.32,28.32,0,0,1,10.81.55,42,42,0,0,1,.15-6c.69-6.55-4.26-16.5-2.22-20.34s15.66-14.81,19.24-19.19a64.74,64.74,0,0,0,5.11-8.27,81.67,81.67,0,0,0-26.65-3.75c-.88,6.29-2.65,13.9-6.23,18.85-7,9.71-29.68,13.88-39.11,4.23-1.52-1.55-3-3.05-4.52-4.48a87.73,87.73,0,0,0-17.29,19.06l.67.35C163.83,198.44,181,205.7,181.77,206.56Z" style="fill:#5AB4F9"></path></g><path d="M278.43,388.28s7.72,15,12.74,16.13,2.68-10.09-2.75-16.79a31.85,31.85,0,0,0-11.75-9.17S276.82,384.78,278.43,388.28Z" style="fill:#fff;stroke:#2e353a;stroke-linecap:round;stroke-linejoin:round"></path><path d="M164.2,155.6s-12.84-1.74-20.61-1.94-12.39-.83-12.21,2.7,1.75,5.56,7.8,11.81,14.13,15.44,22.8,19.7,25.84,11.53,26.61,12.39,8,15.34,11.36,21,2.42,12.58,2.28,13.89-6.42,25.44-4.13,37.06,9.41,25.47,17.31,33.4,17.24,16.94,18.77,20.92.08,7.41,2.19,17.77,9.68,20.58,16.55,25.75,18,13,19.1,14.09.7,14.11,2.77,19.63-.24,9.72,1.47,10.44,4.48,2,6.47-2.2.75-13-.74-16.68-3.47-6.29-4.05-10.41,2-31.28-.16-40-19-19.93-20.3-24.9-2.56-11.26-1.84-13,10.71-22.5,4.37-44.53-18.26-33.26-20.24-35.88-4.92-2.86-5.59-7.61-1.89-11-1.2-17.58-4.26-16.51-2.22-20.35,15.66-14.81,19.24-19.19,13.2-23.17,14.83-29.86-.48-10.26-5.27-7.65-19,7.52-23.12,10-7.11,4.55-7.11,4.55-.07,20-7.1,29.74-29.68,13.88-39.11,4.23A254.8,254.8,0,0,0,164.2,155.6Z" style="fill:#fff;stroke:#2e353a;stroke-linecap:round;stroke-linejoin:round"></path><path d="M232.05,274.84s.9,37.32,5.86,43.35,16.21,32.82,24.93,44.28S272,384.13,272,384.13" style="fill:none;stroke:#2e353a;stroke-linecap:round;stroke-linejoin:round"></path><path d="M237.66,146.51s9-11.92,13.66-16.45" style="fill:none;stroke:#2e353a;stroke-linecap:round;stroke-linejoin:round"></path><path d="M160.66,163.68s-9.35-4.49-15.72-5" style="fill:none;stroke:#2e353a;stroke-linecap:round;stroke-linejoin:round"></path><path d="M191.86,191.4s-1.82,7.69-3.23,13.7,3.41,12.75,8.16,14.34,12.89-4.73,15.51-6.71,4.39-3.2,8.06-2.43,6.41,4.26,14,.61,7.35-12,5.46-16.26-10.07-7.3-12-9.29a37.77,37.77,0,0,0-4.06-3.63l-2.22,2.58s1.44,1.08,2.16,6.15-5.45,16.27-8.21,17.3-10.75-7.52-14.54-11.51-4.7-5.79-4.7-5.79S192.27,189.73,191.86,191.4Z" style="fill:#5AB4F9;stroke:#2e353a;stroke-linecap:round;stroke-linejoin:round"></path><path d="M201.5,239.12s18,17.48,23.66,16.67c6-.85,15.83-27.42,15.83-27.42l1.8,1.36s-7.66,14.32-8.63,23.5,0,20.66-2.11,21.61-11.23-13.64-14.8-17.93c-5.05-6.07-16-15.17-16-15.17Z" style="fill:#5AB4F9;stroke:#2e353a;stroke-linecap:round;stroke-linejoin:round"></path><path d="M235.22,310c-.42-6.16-3.46-30.76-3.46-30.76s-4.17,23.85-3.13,31.24,9,19.6,14.81,26.32,19.4,25.7,19.4,25.7l-21.36-39.62S235.65,316.12,235.22,310Z" style="fill:#5AB4F9;opacity:0.6000000000000001;mix-blend-mode:multiply"></path><path d="M230.72,187.35c-.51-2.61-.72-4.86,0-6.28.91-1.72,4.13-4.86,7.74-8.19v0a49.62,49.62,0,0,0-10.44-20.32c-1,5.68-2.73,11.94-5.82,16.2-7,9.71-29.68,13.88-39.11,4.23-5.6-5.72-11.19-10.74-14.83-13.89a47.72,47.72,0,0,0-3.17,30.33c9.11,4.28,22.79,10.11,23.47,10.88a12.49,12.49,0,0,1,.84,1.41l-.8,3.43c-1.42,6,3.41,12.75,8.16,14.34a5.64,5.64,0,0,0,2.23.22c.33.58.64,1.12.93,1.59a16.73,16.73,0,0,1,1.76,4.24,32.77,32.77,0,0,0,11-.83c14-3.52,23.83-15.81,26.54-30.89C237.55,191.15,233.6,189,230.72,187.35Z" style="fill:#5AB4F9;opacity:0.6000000000000001;mix-blend-mode:multiply"></path><path d="M179.65,123.83c-7.23,4-15.11,9.2-18.26,17.1-4.47,11.23-1.31,26.43,7.79,37.25s25.83,22.1,42.3,17.25,29-30.35,26.66-47.17-14.09-28.29-30.63-31c-9.29-1.52-18.73,1.66-26.83,6Z" style="fill:#5AB4F9;stroke:#2e353a;stroke-linecap:round;stroke-linejoin:round"></path><ellipse cx="195.25" cy="162.08" rx="23.19" ry="24.66" transform="translate(-20.75 28.9) rotate(-8.04)" style="opacity:0.1;mix-blend-mode:multiply"></ellipse><path d="M193,131.49s-10.86,2.5-12.66,13,1.63,15.61,4.68,20.79S196.79,174,205.59,172s12.51-13,12-19.48-3.68-13.78-7.66-17.27A17.16,17.16,0,0,0,193,131.49Z" style="fill:#2e353a;stroke:#2e353a;stroke-linecap:round;stroke-linejoin:round"></path><path d="M193,131.49s-10.86,2.5-12.66,13a27.33,27.33,0,0,0-.07,10c.68,1.29,1.42,2.5,2.13,3.72,3,5.17,11.82,8.78,20.62,6.76s12.51-13,12-19.48a28.89,28.89,0,0,0-.72-4.34,19.82,19.82,0,0,0-4.33-5.87A17.16,17.16,0,0,0,193,131.49Z" style="fill:#5AB4F9;stroke:#2e353a;stroke-linecap:round;stroke-linejoin:round"></path><path d="M216,138.9s4,4.54,4,13.1" style="fill:none;stroke:#2e353a;stroke-linecap:round;stroke-linejoin:round;stroke-width:0.75px"></path><path d="M219.79,155.74a18.39,18.39,0,0,1-2.95,9.09" style="fill:none;stroke:#2e353a;stroke-linecap:round;stroke-linejoin:round;stroke-width:0.75px"></path><path d="M185.84,170.36a15,15,0,0,0,2.39,2" style="fill:none;stroke:#2e353a;stroke-linecap:round;stroke-linejoin:round;stroke-width:0.75px"></path><path d="M178.87,157.08a33.06,33.06,0,0,0,5.3,11.39" style="fill:none;stroke:#2e353a;stroke-linecap:round;stroke-linejoin:round;stroke-width:0.75px"></path></g></svg>